<svg xmlns="http://www.w3.org/2000/svg" width="1440" viewBox="0 0 1440 810" height="810" version="1.0"><defs><clipPath id="a"><path d="M 251 95.863281 L 1164 95.863281 L 1164 757 L 251 757 Z M 251 95.863281"/></clipPath><clipPath id="b"><path d="M 917 95.863281 L 1164 95.863281 L 1164 419 L 917 419 Z M 917 95.863281"/></clipPath></defs><g clip-path="url(#a)"><path fill="#3D49CC" d="M 477.292969 457.703125 C 467.1875 457.277344 459.328125 459.070312 455.652344 459.90625 C 447.722656 461.707031 440.691406 465.648438 433.523438 469.253906 C 420.832031 475.640625 409.671875 484.0625 400.035156 494.511719 C 399.265625 495.347656 398.335938 496.050781 397.433594 496.753906 C 393.171875 500.0625 392.550781 500.222656 389.007812 495.964844 C 383.601562 489.46875 378.546875 482.679688 373.378906 475.992188 C 366.335938 466.878906 360.65625 456.902344 355.105469 446.847656 C 354.550781 445.84375 354.152344 444.761719 353.632812 443.738281 C 352.457031 441.414062 352.90625 439.542969 354.535156 437.445312 C 363.675781 425.660156 372.738281 413.8125 381.679688 401.878906 C 390.207031 390.496094 399.671875 379.917969 409.050781 369.253906 C 414.164062 363.441406 418.988281 357.371094 424.03125 351.492188 C 427.578125 347.355469 431.035156 343.105469 434.945312 339.328125 C 447.046875 327.644531 457.558594 314.519531 468.921875 302.167969 C 469.503906 301.535156 469.984375 300.804688 470.601562 300.210938 C 484.582031 286.773438 497.238281 272.070312 510.742188 258.179688 C 519.945312 248.714844 528.636719 238.78125 537.050781 228.601562 C 539.882812 225.179688 543.019531 222.007812 546.078125 218.777344 C 550.125 214.5 554.152344 210.203125 557.425781 205.292969 C 560.707031 200.371094 565.535156 200.316406 570.457031 201.199219 C 587.699219 204.289062 604.523438 209 620.964844 215.03125 C 624.449219 216.3125 627.6875 218.253906 631.039062 219.894531 C 631.957031 220.339844 632.8125 220.894531 633.320312 221.792969 C 633.792969 222.625 633.789062 223.640625 632.828125 224 C 628.808594 225.496094 626.738281 229.136719 624.054688 232.019531 C 611.632812 245.359375 600.179688 259.535156 588.886719 273.824219 C 579.015625 286.316406 569.3125 298.976562 562.074219 313.269531 C 555.21875 326.804688 550.207031 341.019531 548.714844 356.160156 C 547.71875 366.238281 550.046875 375.800781 556.109375 384.25 C 562.816406 393.59375 571.257812 400.347656 582.871094 402.203125 C 590.574219 403.4375 598.320312 403.042969 605.957031 401.453125 C 624.875 397.519531 642.800781 390.824219 660.089844 382.21875 C 676.050781 374.277344 690.941406 364.539062 706.222656 355.449219 C 712.261719 351.855469 718.132812 347.992188 724.34375 344.671875 C 729.023438 342.171875 733.496094 341.046875 739.070312 341.996094 C 749.089844 343.707031 758.8125 346.269531 767.527344 351.269531 C 783.441406 360.40625 799.816406 368.722656 815.394531 378.480469 C 836.417969 391.652344 857.386719 404.925781 878.734375 417.574219 C 887.503906 422.773438 895.582031 429.015625 904.132812 434.550781 C 917.980469 443.515625 931.597656 452.816406 944.578125 463.019531 C 953.042969 469.671875 961.347656 476.507812 968.804688 484.304688 C 971.179688 486.792969 973.476562 489.375 975.59375 492.082031 C 979.523438 497.109375 980.199219 503.066406 978.613281 508.878906 C 975.945312 518.679688 973.542969 528.59375 969.121094 537.859375 C 966.214844 543.945312 962.101562 548.574219 955.898438 551.367188 C 952.855469 552.734375 949.902344 552.945312 946.71875 552 C 942.375 550.710938 938.699219 548.175781 934.933594 545.84375 C 909.164062 529.882812 884.800781 511.984375 861.554688 492.535156 C 854.625 486.738281 847.472656 481.210938 840.492188 475.480469 C 838.992188 474.246094 838.214844 474.390625 837.152344 475.984375 C 835.5625 478.367188 833.796875 480.644531 831.9375 482.820312 C 830.460938 484.546875 830.753906 485.792969 832.363281 487.160156 C 841 494.496094 849.757812 501.664062 859.03125 508.199219 C 878.84375 522.164062 898.675781 536.105469 917.847656 550.949219 C 924.992188 556.480469 931.941406 562.261719 938.074219 568.960938 C 940.972656 572.121094 941.105469 574.316406 941.378906 575.324219 C 943.707031 583.953125 938.066406 591.980469 931.796875 600.90625 C 931.796875 600.90625 923.902344 612.144531 909.339844 621.804688 C 907.339844 623.132812 905.28125 623.988281 905.28125 623.988281 C 905.21875 624.015625 905.179688 624.03125 905.167969 624.035156 C 900.089844 626.199219 895.78125 626.0625 891.042969 622.066406 C 868.347656 602.933594 845.441406 584.050781 820.960938 567.171875 C 811.878906 560.910156 803.152344 554.117188 794.3125 547.5 C 789.203125 543.675781 788.46875 543.773438 785.238281 549.328125 C 782.917969 553.320312 782.90625 553.410156 786.082031 556.675781 C 792.011719 562.773438 798.875 567.746094 805.703125 572.746094 C 818.667969 582.238281 830.9375 592.601562 843.445312 602.675781 C 856.066406 612.835938 868.980469 622.628906 881.777344 632.566406 C 886.226562 636.023438 889.351562 640.34375 890.75 645.863281 C 891.113281 647.296875 891.304688 648.671875 890.679688 650.066406 C 888.976562 653.875 887.09375 657.550781 884.402344 660.804688 C 879.523438 666.710938 873.683594 671.550781 867.726562 676.273438 C 865.707031 677.878906 863.542969 679.3125 861.609375 681.011719 C 858.234375 683.976562 854.378906 684.0625 850.296875 683.28125 C 844.417969 682.15625 839.101562 679.652344 834.222656 676.304688 C 824.167969 669.402344 814.6875 661.722656 805.253906 654.003906 C 792.378906 643.472656 779.609375 632.8125 766.820312 622.175781 C 757.226562 614.199219 747.675781 606.175781 738.105469 598.167969 C 737.664062 597.800781 737.269531 597.371094 736.8125 597.03125 C 735.382812 595.964844 733.601562 595 732.039062 595.824219 C 730.136719 596.832031 729.164062 598.933594 728.59375 601.050781 C 728.347656 601.972656 728.929688 602.707031 729.503906 603.363281 C 731.105469 605.199219 732.636719 607.109375 734.355469 608.832031 C 745.796875 620.328125 757.050781 632.019531 769.101562 642.894531 C 779.335938 652.128906 790.261719 660.5 801.429688 668.570312 C 807.9375 673.273438 814.464844 677.941406 820.183594 683.652344 C 826.339844 689.800781 827.480469 697.042969 823.289062 704.882812 C 815.535156 719.382812 803.054688 727.96875 787.582031 732.585938 C 785.117188 733.320312 782.582031 733.839844 780.078125 734.441406 C 772.398438 736.292969 764.941406 734.9375 757.675781 732.507812 C 748.667969 729.492188 740.140625 725.390625 732.273438 720.003906 C 731.097656 719.199219 729.980469 718.28125 728.9375 717.304688 C 727.214844 715.691406 727.054688 713.953125 727.640625 711.507812 C 729.375 704.257812 732.667969 697.492188 733.863281 690.070312 C 734.480469 686.257812 733.699219 682.625 733.324219 678.980469 C 732.8125 674.015625 731.679688 669.117188 730.328125 664.261719 C 728.070312 656.167969 723.910156 649.164062 718.285156 643.15625 C 713.28125 637.816406 706.929688 634.476562 699.507812 633.550781 C 698.9375 633.480469 698.371094 633.40625 697.808594 633.296875 C 692.316406 632.226562 692.21875 632.242188 691.171875 626.683594 C 687.609375 607.722656 677.121094 593.175781 662.90625 580.671875 C 654.867188 573.597656 645.730469 570.699219 635.34375 570.609375 C 629.171875 570.554688 623.011719 570.472656 617.042969 572.496094 C 615.890625 572.886719 614.5 573.554688 613.464844 572.226562 C 612.535156 571.039062 613.097656 569.816406 613.554688 568.574219 C 614.886719 564.941406 616.089844 561.289062 616.800781 557.445312 C 617.613281 553.089844 616.859375 549.144531 614.535156 545.519531 C 604.792969 530.320312 591.402344 519.417969 574.863281 512.390625 C 568.132812 509.53125 560.890625 509.042969 553.726562 509.535156 C 548.425781 509.898438 545.253906 507.902344 543.386719 503.15625 C 540.277344 495.265625 535.039062 488.917969 529.324219 482.746094 C 522.492188 475.367188 516.25 470.363281 512.929688 468.265625 C 497.875 458.746094 482.964844 457.941406 477.292969 457.703125 Z M 871.558594 168.167969 C 878.5 168.171875 884.367188 170.269531 889.226562 175.5625 C 897.140625 184.1875 904.207031 193.472656 909.472656 203.851562 C 923.667969 231.835938 941.21875 257.734375 957.910156 284.199219 C 980.421875 319.898438 1003.9375 354.949219 1026.054688 390.894531 C 1030.71875 398.472656 1035.394531 406.046875 1040.019531 413.652344 C 1041.210938 415.609375 1042.246094 417.664062 1043.328125 419.691406 C 1044.886719 422.617188 1044.429688 425.203125 1042 427.46875 C 1037.480469 431.671875 1033.082031 436.011719 1028.445312 440.082031 C 1018.628906 448.695312 1008.699219 457.179688 998.789062 465.6875 C 997.488281 466.804688 996.089844 467.828125 994.648438 468.761719 C 991.113281 471.058594 989.410156 470.953125 986.230469 468.082031 C 984.316406 466.351562 982.492188 464.5 980.804688 462.550781 C 968.542969 448.351562 954.910156 435.730469 939.121094 425.476562 C 932.507812 421.179688 926.183594 416.4375 919.796875 411.800781 C 904.429688 400.652344 887.648438 391.777344 871.570312 381.78125 C 844.378906 364.875 816.285156 349.542969 788.203125 334.203125 C 778.132812 328.703125 767.621094 324.046875 757.132812 319.378906 C 740.324219 311.902344 724.445312 314.234375 709.171875 323.699219 C 702.921875 327.570312 697.160156 332.078125 691.800781 337.074219 C 678.058594 349.890625 662.398438 359.355469 644.585938 365.476562 C 634.269531 369.019531 624.074219 372.910156 613.257812 374.582031 C 607.199219 375.519531 601.078125 377.046875 594.914062 375.960938 C 588.273438 374.792969 581.78125 373.140625 576.714844 368.035156 C 568.710938 359.96875 567.019531 350.808594 571.917969 340.511719 C 575.8125 332.316406 580.449219 324.585938 585.894531 317.320312 C 594.070312 306.410156 602.105469 295.382812 610.890625 284.949219 C 614.675781 280.453125 618.726562 276.171875 622.71875 271.851562 C 636.550781 256.875 650.378906 241.902344 664.265625 226.980469 C 672.125 218.539062 681.679688 212.535156 692.210938 208.023438 C 707.964844 201.273438 724.421875 196.808594 741.136719 193.253906 C 769.589844 187.199219 798.117188 181.484375 826.683594 175.988281 C 839.632812 173.5 852.511719 170.65625 865.582031 168.835938 C 867.566406 168.5625 869.566406 168.386719 871.558594 168.167969 Z M 659.742188 649.746094 C 662.226562 644.714844 663.558594 642.222656 664.234375 639.238281 C 665.683594 632.828125 665 626.207031 662.726562 619.300781 C 657.714844 604.074219 647.285156 595.046875 632.28125 590.511719 C 620.910156 587.074219 611.367188 588.871094 603.898438 590.195312 C 595.066406 591.761719 588.109375 594.492188 583.515625 596.628906 C 583.136719 594.96875 584.425781 593.996094 585.164062 592.847656 C 587.265625 589.582031 589.296875 586.277344 590.847656 582.722656 C 592.699219 578.472656 593.910156 573.949219 593.464844 569.34375 C 592.117188 555.394531 584.902344 544.710938 573.441406 537.265625 C 561.574219 529.558594 548.375 527.183594 534.300781 529.855469 C 525.921875 531.445312 517.9375 534.039062 510.328125 537.84375 C 510.253906 537.300781 510.175781 536.761719 510.101562 536.21875 C 513.957031 531.183594 517.21875 525.808594 519.675781 519.941406 C 522.222656 513.863281 521.535156 508.21875 517.824219 502.820312 C 515.941406 500.078125 513.542969 497.800781 511.390625 495.300781 C 505.375 488.308594 497.730469 483.554688 489.542969 479.59375 C 487.339844 478.527344 484.90625 477.9375 482.484375 477.808594 C 474.429688 477.386719 466.398438 477.53125 458.664062 480.222656 C 449.84375 483.292969 441.328125 487.078125 433.128906 491.550781 C 421.523438 497.878906 412.320312 507.234375 402.625 515.957031 C 398.550781 519.621094 395.199219 523.894531 392.054688 528.390625 C 389.613281 531.878906 389.074219 535.40625 390.292969 539.375 C 391.011719 541.71875 391.878906 543.980469 393.125 546.101562 C 399.550781 557.042969 407.496094 566.859375 415.832031 576.347656 C 421.910156 583.265625 429.738281 585.675781 438.785156 583.992188 C 444.59375 582.910156 452.324219 581.320312 471.144531 571.53125 C 476.40625 568.792969 480.6875 566.402344 483.597656 564.738281 C 483.378906 565.089844 483.15625 565.441406 482.9375 565.789062 C 482.136719 567.140625 481.375 568.515625 480.523438 569.832031 C 476.632812 575.859375 472.660156 581.832031 468.832031 587.894531 C 464.683594 594.460938 463.078125 601.578125 464.6875 609.285156 C 465.785156 614.546875 468.019531 619.328125 470.792969 623.902344 C 475.691406 631.980469 482.558594 638.316406 489.164062 644.898438 C 494.171875 649.882812 500.3125 652.382812 507.136719 653.304688 C 515.605469 654.449219 523.101562 650.519531 525.523438 649.371094 C 528.214844 648.09375 530.320312 646.730469 531.773438 645.695312 C 532.328125 647.4375 531.132812 648.71875 530.515625 650.105469 C 526.476562 659.15625 527.074219 667.949219 531.855469 676.523438 C 533.605469 679.65625 535.453125 682.730469 537.636719 685.59375 C 543.875 693.765625 551.558594 700.515625 559.53125 706.828125 C 567.84375 713.40625 577.660156 714.886719 588.023438 713.253906 C 594.375 712.253906 599.230469 708.3125 604.476562 705.117188 C 607.125 703.503906 609.449219 701.359375 612.375 700.082031 C 613.140625 701.835938 612.046875 703.046875 611.609375 704.335938 C 608.25 714.203125 609.390625 723.347656 616.253906 731.355469 C 619.324219 734.9375 622.84375 738.152344 626.3125 741.367188 C 636.371094 750.695312 648.410156 755.421875 661.96875 756.800781 C 666.527344 757.265625 669.890625 755.765625 673.148438 752.738281 C 681.910156 744.585938 689.753906 735.675781 696.539062 725.8125 C 702.660156 716.914062 708.25 707.773438 711.386719 697.296875 C 713.792969 689.253906 714.4375 681.320312 711.703125 673.203125 C 707.203125 659.839844 697.359375 652.65625 683.25 652.558594 C 677.984375 652.519531 673.078125 654.023438 668.121094 655.488281 C 663.171875 656.957031 658.625 659.511719 653.59375 660.734375 C 655.222656 658.148438 657.433594 654.414062 659.742188 649.746094 Z M 995.117188 96.785156 C 987.210938 99.230469 980.386719 103.785156 973.492188 108.132812 C 955.804688 119.292969 939.039062 131.804688 921.832031 143.671875 C 920.546875 144.554688 919.46875 145.753906 918.355469 146.871094 C 916.828125 148.402344 916.636719 150.265625 917.804688 151.972656 C 922.1875 158.363281 925.515625 165.398438 929.851562 171.796875 C 934.128906 178.105469 937.757812 184.757812 941.285156 191.488281 C 943.679688 196.058594 946.09375 200.621094 948.59375 205.132812 C 955.265625 217.160156 962.023438 229.140625 968.679688 241.179688 C 971.523438 246.320312 974.128906 251.597656 976.964844 256.746094 C 983.882812 269.292969 990.871094 281.800781 997.820312 294.328125 C 1001.296875 300.59375 1004.710938 306.894531 1008.214844 313.144531 C 1014.097656 323.640625 1020.050781 334.097656 1025.929688 344.597656 C 1030.621094 352.972656 1035.125 361.457031 1039.933594 369.765625 C 1047.390625 382.65625 1055.855469 394.945312 1062.898438 408.089844 C 1064.316406 410.734375 1065.847656 413.378906 1067.722656 415.707031 C 1070.660156 419.355469 1072.054688 419.601562 1075.855469 418.085938 C 1077.585938 417.398438 1079.199219 416.476562 1080.761719 415.425781 C 1088.355469 410.304688 1095.917969 405.125 1103.660156 400.234375 C 1107.769531 397.636719 1112.382812 395.84375 1116.492188 393.25 C 1127.875 386.066406 1139.144531 378.699219 1150.386719 371.300781 C 1153.851562 369.023438 1157.160156 366.5 1160.417969 363.933594 C 1163.503906 361.496094 1164 359.347656 1162.628906 355.628906 C 1162.183594 354.421875 1161.625 353.25 1161.023438 352.109375 C 1155.953125 342.46875 1150.246094 333.203125 1144.464844 323.972656 C 1136.101562 310.625 1128.351562 296.894531 1119.605469 283.78125 C 1110.207031 269.695312 1102.648438 254.546875 1094.214844 239.898438 C 1085.425781 224.628906 1076.226562 209.613281 1066.644531 194.820312 C 1059.640625 184.007812 1052.816406 173.0625 1046.320312 161.933594 C 1035.414062 143.25 1024.597656 124.523438 1012.261719 106.726562 C 1010.542969 104.246094 1008.835938 101.785156 1006.832031 99.539062 C 1004.707031 97.15625 1002 96.070312 998.21875 95.875 C 997.515625 95.78125 996.335938 96.410156 995.117188 96.785156 Z M 530.097656 180.753906 C 530.003906 182.773438 528.714844 184.144531 527.464844 185.535156 C 522.285156 191.289062 516.941406 196.90625 511.949219 202.820312 C 498.800781 218.378906 484.5 232.925781 471.550781 248.632812 C 462.0625 260.140625 452.496094 271.589844 442.726562 282.835938 C 430.265625 297.183594 419.996094 313.097656 408.519531 328.128906 C 396.523438 343.847656 384.832031 359.804688 371.601562 374.582031 C 362.523438 384.722656 353.582031 395.011719 344.671875 405.316406 C 341.582031 408.886719 338.152344 412.203125 334.648438 415.378906 C 330.898438 418.78125 329.59375 418.601562 326.019531 415 C 317.425781 406.34375 309.355469 397.1875 300.910156 388.394531 C 294.15625 381.363281 286.941406 374.769531 279.847656 368.070312 C 273.175781 361.765625 266.402344 355.570312 259.65625 349.34375 C 257.445312 347.300781 255.074219 345.417969 252.972656 343.273438 C 250.675781 340.929688 251.046875 340.726562 253.457031 338.445312 C 257.511719 334.609375 261.484375 330.636719 265.066406 326.363281 C 282.296875 305.8125 298.953125 284.800781 315.453125 263.65625 C 320.914062 256.65625 326.941406 250.089844 332.855469 243.449219 C 343.359375 231.664062 354.457031 220.433594 365.269531 208.933594 C 373.222656 200.476562 380.710938 191.578125 388.398438 182.871094 C 392.289062 178.460938 396.515625 174.367188 400.425781 169.960938 C 409.847656 159.324219 418.582031 148.136719 427.492188 137.085938 C 431.269531 132.398438 435.089844 127.734375 439.097656 123.246094 C 441.800781 120.214844 442.550781 120.277344 446.203125 122.035156 C 450.621094 124.160156 454.660156 126.921875 458.605469 129.773438 C 466.867188 135.753906 475.902344 140.535156 484.21875 146.390625 C 493.730469 153.089844 503.945312 158.65625 513.492188 165.257812 C 518.316406 168.59375 522.785156 172.449219 527.367188 176.128906 C 528.816406 177.296875 530.265625 178.570312 530.097656 180.753906 Z M 530.097656 180.753906"/></g><path fill="#3D49CC" d="M 477.292969 457.703125 C 467.1875 457.277344 459.328125 459.070312 455.652344 459.90625 C 447.722656 461.707031 440.691406 465.648438 433.523438 469.253906 C 420.832031 475.640625 409.671875 484.0625 400.035156 494.511719 C 399.265625 495.347656 398.335938 496.050781 397.433594 496.753906 C 393.171875 500.0625 392.550781 500.222656 389.007812 495.964844 C 383.601562 489.46875 378.546875 482.679688 373.378906 475.992188 C 366.335938 466.878906 360.65625 456.902344 355.105469 446.847656 C 354.550781 445.84375 354.152344 444.761719 353.632812 443.738281 C 352.457031 441.414062 352.90625 439.542969 354.535156 437.445312 C 363.675781 425.660156 372.738281 413.8125 381.679688 401.878906 C 390.207031 390.496094 399.671875 379.917969 409.050781 369.253906 C 414.164062 363.441406 418.988281 357.371094 424.03125 351.492188 C 427.578125 347.355469 431.035156 343.105469 434.945312 339.328125 C 447.046875 327.644531 457.558594 314.519531 468.921875 302.167969 C 469.503906 301.535156 469.984375 300.804688 470.601562 300.210938 C 484.582031 286.773438 497.238281 272.070312 510.742188 258.179688 C 519.945312 248.714844 528.636719 238.78125 537.050781 228.601562 C 539.882812 225.179688 543.019531 222.007812 546.078125 218.777344 C 550.125 214.5 554.152344 210.203125 557.425781 205.292969 C 560.707031 200.371094 565.535156 200.316406 570.457031 201.199219 C 587.699219 204.289062 604.523438 209 620.964844 215.03125 C 624.449219 216.3125 627.6875 218.253906 631.039062 219.894531 C 631.957031 220.339844 632.8125 220.894531 633.320312 221.792969 C 633.792969 222.625 633.789062 223.640625 632.828125 224 C 628.808594 225.496094 626.738281 229.136719 624.054688 232.019531 C 611.632812 245.359375 600.179688 259.535156 588.886719 273.824219 C 579.015625 286.316406 569.3125 298.976562 562.074219 313.269531 C 555.21875 326.804688 550.207031 341.019531 548.714844 356.160156 C 547.71875 366.238281 550.046875 375.800781 556.109375 384.25 C 562.816406 393.59375 571.257812 400.347656 582.871094 402.203125 C 590.574219 403.4375 598.320312 403.042969 605.957031 401.453125 C 624.875 397.519531 642.800781 390.824219 660.089844 382.21875 C 676.050781 374.277344 690.941406 364.539062 706.222656 355.449219 C 712.261719 351.855469 718.132812 347.992188 724.34375 344.671875 C 729.023438 342.171875 733.496094 341.046875 739.070312 341.996094 C 749.089844 343.707031 758.8125 346.269531 767.527344 351.269531 C 783.441406 360.40625 799.816406 368.722656 815.394531 378.480469 C 836.417969 391.652344 857.386719 404.925781 878.734375 417.574219 C 887.503906 422.773438 895.582031 429.015625 904.132812 434.550781 C 917.980469 443.515625 931.597656 452.816406 944.578125 463.019531 C 953.042969 469.671875 961.347656 476.507812 968.804688 484.304688 C 971.179688 486.792969 973.476562 489.375 975.59375 492.082031 C 979.523438 497.109375 980.199219 503.066406 978.613281 508.878906 C 975.945312 518.679688 973.542969 528.59375 969.121094 537.859375 C 966.214844 543.945312 962.101562 548.574219 955.898438 551.367188 C 952.855469 552.734375 949.902344 552.945312 946.71875 552 C 942.375 550.710938 938.699219 548.175781 934.933594 545.84375 C 909.164062 529.882812 884.800781 511.984375 861.554688 492.535156 C 854.625 486.738281 847.472656 481.210938 840.492188 475.480469 C 838.992188 474.246094 838.214844 474.390625 837.152344 475.984375 C 835.5625 478.367188 833.796875 480.644531 831.9375 482.820312 C 830.460938 484.546875 830.753906 485.792969 832.363281 487.160156 C 841 494.496094 849.757812 501.664062 859.03125 508.199219 C 878.84375 522.164062 898.675781 536.105469 917.847656 550.949219 C 924.992188 556.480469 931.941406 562.261719 938.074219 568.960938 C 940.972656 572.121094 941.105469 574.316406 941.378906 575.324219 C 943.707031 583.953125 938.066406 591.980469 931.796875 600.90625 C 931.796875 600.90625 923.902344 612.144531 909.339844 621.804688 C 907.339844 623.132812 905.28125 623.988281 905.28125 623.988281 C 905.21875 624.015625 905.179688 624.03125 905.167969 624.035156 C 900.089844 626.199219 895.78125 626.0625 891.042969 622.066406 C 868.347656 602.933594 845.441406 584.050781 820.960938 567.171875 C 811.878906 560.910156 803.152344 554.117188 794.3125 547.5 C 789.203125 543.675781 788.46875 543.773438 785.238281 549.328125 C 782.917969 553.320312 782.90625 553.410156 786.082031 556.675781 C 792.011719 562.773438 798.875 567.746094 805.703125 572.746094 C 818.667969 582.238281 830.9375 592.601562 843.445312 602.675781 C 856.066406 612.835938 868.980469 622.628906 881.777344 632.566406 C 886.226562 636.023438 889.351562 640.34375 890.75 645.863281 C 891.113281 647.296875 891.304688 648.671875 890.679688 650.066406 C 888.976562 653.875 887.09375 657.550781 884.402344 660.804688 C 879.523438 666.710938 873.683594 671.550781 867.726562 676.273438 C 865.707031 677.878906 863.542969 679.3125 861.609375 681.011719 C 858.234375 683.976562 854.378906 684.0625 850.296875 683.28125 C 844.417969 682.15625 839.101562 679.652344 834.222656 676.304688 C 824.167969 669.402344 814.6875 661.722656 805.253906 654.003906 C 792.378906 643.472656 779.609375 632.8125 766.820312 622.175781 C 757.226562 614.199219 747.675781 606.175781 738.105469 598.167969 C 737.664062 597.800781 737.269531 597.371094 736.8125 597.03125 C 735.382812 595.964844 733.601562 595 732.039062 595.824219 C 730.136719 596.832031 729.164062 598.933594 728.59375 601.050781 C 728.347656 601.972656 728.929688 602.707031 729.503906 603.363281 C 731.105469 605.199219 732.636719 607.109375 734.355469 608.832031 C 745.796875 620.328125 757.050781 632.019531 769.101562 642.894531 C 779.335938 652.128906 790.261719 660.5 801.429688 668.570312 C 807.9375 673.273438 814.464844 677.941406 820.183594 683.652344 C 826.339844 689.800781 827.480469 697.042969 823.289062 704.882812 C 815.535156 719.382812 803.054688 727.96875 787.582031 732.585938 C 785.117188 733.320312 782.582031 733.839844 780.078125 734.441406 C 772.398438 736.292969 764.941406 734.9375 757.675781 732.507812 C 748.667969 729.492188 740.140625 725.390625 732.273438 720.003906 C 731.097656 719.199219 729.980469 718.28125 728.9375 717.304688 C 727.214844 715.691406 727.054688 713.953125 727.640625 711.507812 C 729.375 704.257812 732.667969 697.492188 733.863281 690.070312 C 734.480469 686.257812 733.699219 682.625 733.324219 678.980469 C 732.8125 674.015625 731.679688 669.117188 730.328125 664.261719 C 728.070312 656.167969 723.910156 649.164062 718.285156 643.15625 C 713.28125 637.816406 706.929688 634.476562 699.507812 633.550781 C 698.9375 633.480469 698.371094 633.40625 697.808594 633.296875 C 692.316406 632.226562 692.21875 632.242188 691.171875 626.683594 C 687.609375 607.722656 677.121094 593.175781 662.90625 580.671875 C 654.867188 573.597656 645.730469 570.699219 635.34375 570.609375 C 629.171875 570.554688 623.011719 570.472656 617.042969 572.496094 C 615.890625 572.886719 614.5 573.554688 613.464844 572.226562 C 612.535156 571.039062 613.097656 569.816406 613.554688 568.574219 C 614.886719 564.941406 616.089844 561.289062 616.800781 557.445312 C 617.613281 553.089844 616.859375 549.144531 614.535156 545.519531 C 604.792969 530.320312 591.402344 519.417969 574.863281 512.390625 C 568.132812 509.53125 560.890625 509.042969 553.726562 509.535156 C 548.425781 509.898438 545.253906 507.902344 543.386719 503.15625 C 540.277344 495.265625 535.039062 488.917969 529.324219 482.746094 C 522.492188 475.367188 516.25 470.363281 512.929688 468.265625 C 497.875 458.746094 482.964844 457.941406 477.292969 457.703125 Z M 477.292969 457.703125"/><path fill="#141842" d="M 871.558594 168.167969 C 878.5 168.171875 884.367188 170.269531 889.226562 175.5625 C 897.140625 184.1875 904.207031 193.472656 909.472656 203.851562 C 923.667969 231.835938 941.21875 257.734375 957.910156 284.199219 C 980.421875 319.898438 1003.9375 354.949219 1026.054688 390.894531 C 1030.71875 398.472656 1035.394531 406.046875 1040.019531 413.652344 C 1041.210938 415.609375 1042.246094 417.664062 1043.328125 419.691406 C 1044.886719 422.617188 1044.429688 425.203125 1042 427.46875 C 1037.480469 431.671875 1033.082031 436.011719 1028.445312 440.082031 C 1018.628906 448.695312 1008.699219 457.179688 998.789062 465.6875 C 997.488281 466.804688 996.089844 467.828125 994.648438 468.761719 C 991.113281 471.058594 989.410156 470.953125 986.230469 468.082031 C 984.316406 466.351562 982.492188 464.5 980.804688 462.550781 C 968.542969 448.351562 954.910156 435.730469 939.121094 425.476562 C 932.507812 421.179688 926.183594 416.4375 919.796875 411.800781 C 904.429688 400.652344 887.648438 391.777344 871.570312 381.78125 C 844.378906 364.875 816.285156 349.542969 788.203125 334.203125 C 778.132812 328.703125 767.621094 324.046875 757.132812 319.378906 C 740.324219 311.902344 724.445312 314.234375 709.171875 323.699219 C 702.921875 327.570312 697.160156 332.078125 691.800781 337.074219 C 678.058594 349.890625 662.398438 359.355469 644.585938 365.476562 C 634.269531 369.019531 624.074219 372.910156 613.257812 374.582031 C 607.199219 375.519531 601.078125 377.046875 594.914062 375.960938 C 588.273438 374.792969 581.78125 373.140625 576.714844 368.035156 C 568.710938 359.96875 567.019531 350.808594 571.917969 340.511719 C 575.8125 332.316406 580.449219 324.585938 585.894531 317.320312 C 594.070312 306.410156 602.105469 295.382812 610.890625 284.949219 C 614.675781 280.453125 618.726562 276.171875 622.71875 271.851562 C 636.550781 256.875 650.378906 241.902344 664.265625 226.980469 C 672.125 218.539062 681.679688 212.535156 692.210938 208.023438 C 707.964844 201.273438 724.421875 196.808594 741.136719 193.253906 C 769.589844 187.199219 798.117188 181.484375 826.683594 175.988281 C 839.632812 173.5 852.511719 170.65625 865.582031 168.835938 C 867.566406 168.5625 869.566406 168.386719 871.558594 168.167969 Z M 659.742188 649.746094 C 662.226562 644.714844 663.558594 642.222656 664.234375 639.238281 C 665.683594 632.828125 665 626.207031 662.726562 619.300781 C 657.714844 604.074219 647.285156 595.046875 632.28125 590.511719 C 620.910156 587.074219 611.367188 588.871094 603.898438 590.195312 C 595.066406 591.761719 588.109375 594.492188 583.515625 596.628906 C 583.136719 594.96875 584.425781 593.996094 585.164062 592.847656 C 587.265625 589.582031 589.296875 586.277344 590.847656 582.722656 C 592.699219 578.472656 593.910156 573.949219 593.464844 569.34375 C 592.117188 555.394531 584.902344 544.710938 573.441406 537.265625 C 561.574219 529.558594 548.375 527.183594 534.300781 529.855469 C 525.921875 531.445312 517.9375 534.039062 510.328125 537.84375 C 510.253906 537.300781 510.175781 536.761719 510.101562 536.21875 C 513.957031 531.183594 517.21875 525.808594 519.675781 519.941406 C 522.222656 513.863281 521.535156 508.21875 517.824219 502.820312 C 515.941406 500.078125 513.542969 497.800781 511.390625 495.300781 C 505.375 488.308594 497.730469 483.554688 489.542969 479.59375 C 487.339844 478.527344 484.90625 477.9375 482.484375 477.808594 C 474.429688 477.386719 466.398438 477.53125 458.664062 480.222656 C 449.84375 483.292969 441.328125 487.078125 433.128906 491.550781 C 421.523438 497.878906 412.320312 507.234375 402.625 515.957031 C 398.550781 519.621094 395.199219 523.894531 392.054688 528.390625 C 389.613281 531.878906 389.074219 535.40625 390.292969 539.375 C 391.011719 541.71875 391.878906 543.980469 393.125 546.101562 C 399.550781 557.042969 407.496094 566.859375 415.832031 576.347656 C 421.910156 583.265625 429.738281 585.675781 438.785156 583.992188 C 444.59375 582.910156 452.324219 581.320312 471.144531 571.53125 C 476.40625 568.792969 480.6875 566.402344 483.597656 564.738281 C 483.378906 565.089844 483.15625 565.441406 482.9375 565.789062 C 482.136719 567.140625 481.375 568.515625 480.523438 569.832031 C 476.632812 575.859375 472.660156 581.832031 468.832031 587.894531 C 464.683594 594.460938 463.078125 601.578125 464.6875 609.285156 C 465.785156 614.546875 468.019531 619.328125 470.792969 623.902344 C 475.691406 631.980469 482.558594 638.316406 489.164062 644.898438 C 494.171875 649.882812 500.3125 652.382812 507.136719 653.304688 C 515.605469 654.449219 523.101562 650.519531 525.523438 649.371094 C 528.214844 648.09375 530.320312 646.730469 531.773438 645.695312 C 532.328125 647.4375 531.132812 648.71875 530.515625 650.105469 C 526.476562 659.15625 527.074219 667.949219 531.855469 676.523438 C 533.605469 679.65625 535.453125 682.730469 537.636719 685.59375 C 543.875 693.765625 551.558594 700.515625 559.53125 706.828125 C 567.84375 713.40625 577.660156 714.886719 588.023438 713.253906 C 594.375 712.253906 599.230469 708.3125 604.476562 705.117188 C 607.125 703.503906 609.449219 701.359375 612.375 700.082031 C 613.140625 701.835938 612.046875 703.046875 611.609375 704.335938 C 608.25 714.203125 609.390625 723.347656 616.253906 731.355469 C 619.324219 734.9375 622.84375 738.152344 626.3125 741.367188 C 636.371094 750.695312 648.410156 755.421875 661.96875 756.800781 C 666.527344 757.265625 669.890625 755.765625 673.148438 752.738281 C 681.910156 744.585938 689.753906 735.675781 696.539062 725.8125 C 702.660156 716.914062 708.25 707.773438 711.386719 697.296875 C 713.792969 689.253906 714.4375 681.320312 711.703125 673.203125 C 707.203125 659.839844 697.359375 652.65625 683.25 652.558594 C 677.984375 652.519531 673.078125 654.023438 668.121094 655.488281 C 663.171875 656.957031 658.625 659.511719 653.59375 660.734375 C 655.222656 658.148438 657.433594 654.414062 659.742188 649.746094 Z M 659.742188 649.746094"/><g clip-path="url(#b)"><path fill="#3D49CC" d="M 998.21875 95.875 C 1002 96.070312 1004.707031 97.15625 1006.832031 99.539062 C 1008.835938 101.785156 1010.542969 104.246094 1012.261719 106.726562 C 1024.597656 124.523438 1035.414062 143.25 1046.320312 161.933594 C 1052.816406 173.0625 1059.640625 184.007812 1066.644531 194.820312 C 1076.226562 209.613281 1085.425781 224.628906 1094.214844 239.898438 C 1102.648438 254.546875 1110.207031 269.695312 1119.605469 283.78125 C 1128.351562 296.894531 1136.101562 310.625 1144.464844 323.972656 C 1150.246094 333.203125 1155.953125 342.46875 1161.023438 352.109375 C 1161.625 353.25 1162.183594 354.421875 1162.628906 355.628906 C 1164 359.347656 1163.503906 361.496094 1160.417969 363.933594 C 1157.160156 366.5 1153.851562 369.023438 1150.386719 371.300781 C 1139.144531 378.699219 1127.875 386.066406 1116.492188 393.25 C 1112.382812 395.84375 1107.769531 397.636719 1103.660156 400.234375 C 1095.917969 405.125 1088.355469 410.304688 1080.761719 415.425781 C 1079.199219 416.476562 1077.585938 417.398438 1075.855469 418.085938 C 1072.054688 419.601562 1070.660156 419.355469 1067.722656 415.707031 C 1065.847656 413.378906 1064.316406 410.734375 1062.898438 408.089844 C 1055.855469 394.945312 1047.390625 382.65625 1039.933594 369.765625 C 1035.125 361.457031 1030.621094 352.972656 1025.929688 344.597656 C 1020.050781 334.097656 1014.097656 323.640625 1008.214844 313.144531 C 1004.710938 306.894531 1001.296875 300.59375 997.820312 294.328125 C 990.871094 281.800781 983.882812 269.292969 976.964844 256.746094 C 974.128906 251.597656 971.523438 246.320312 968.679688 241.179688 C 962.023438 229.140625 955.265625 217.160156 948.59375 205.132812 C 946.09375 200.621094 943.679688 196.058594 941.285156 191.488281 C 937.757812 184.757812 934.128906 178.105469 929.851562 171.796875 C 925.515625 165.398438 922.1875 158.363281 917.804688 151.972656 C 916.636719 150.265625 916.828125 148.402344 918.355469 146.871094 C 919.46875 145.753906 920.546875 144.554688 921.832031 143.671875 C 939.039062 131.804688 955.804688 119.292969 973.492188 108.132812 C 980.386719 103.785156 987.210938 99.230469 995.117188 96.785156 C 996.335938 96.410156 997.515625 95.78125 998.21875 95.875 Z M 998.21875 95.875"/></g><path fill="#141842" d="M 530.097656 180.753906 C 530.003906 182.773438 528.714844 184.144531 527.464844 185.535156 C 522.285156 191.289062 516.941406 196.90625 511.949219 202.820312 C 498.800781 218.378906 484.5 232.925781 471.550781 248.632812 C 462.0625 260.140625 452.496094 271.589844 442.726562 282.835938 C 430.265625 297.183594 419.996094 313.097656 408.519531 328.128906 C 396.523438 343.847656 384.832031 359.804688 371.601562 374.582031 C 362.523438 384.722656 353.582031 395.011719 344.671875 405.316406 C 341.582031 408.886719 338.152344 412.203125 334.648438 415.378906 C 330.898438 418.78125 329.59375 418.601562 326.019531 415 C 317.425781 406.34375 309.355469 397.1875 300.910156 388.394531 C 294.15625 381.363281 286.941406 374.769531 279.847656 368.070312 C 273.175781 361.765625 266.402344 355.570312 259.65625 349.34375 C 257.445312 347.300781 255.074219 345.417969 252.972656 343.273438 C 250.675781 340.929688 251.046875 340.726562 253.457031 338.445312 C 257.511719 334.609375 261.484375 330.636719 265.066406 326.363281 C 282.296875 305.8125 298.953125 284.800781 315.453125 263.65625 C 320.914062 256.65625 326.941406 250.089844 332.855469 243.449219 C 343.359375 231.664062 354.457031 220.433594 365.269531 208.933594 C 373.222656 200.476562 380.710938 191.578125 388.398438 182.871094 C 392.289062 178.460938 396.515625 174.367188 400.425781 169.960938 C 409.847656 159.324219 418.582031 148.136719 427.492188 137.085938 C 431.269531 132.398438 435.089844 127.734375 439.097656 123.246094 C 441.800781 120.214844 442.550781 120.277344 446.203125 122.035156 C 450.621094 124.160156 454.660156 126.921875 458.605469 129.773438 C 466.867188 135.753906 475.902344 140.535156 484.21875 146.390625 C 493.730469 153.089844 503.945312 158.65625 513.492188 165.257812 C 518.316406 168.59375 522.785156 172.449219 527.367188 176.128906 C 528.816406 177.296875 530.265625 178.570312 530.097656 180.753906 Z M 530.097656 180.753906"/></svg>