<svg xmlns="http://www.w3.org/2000/svg" width="1440" viewBox="0 0 1440 810" height="810" version="1.0"><defs><clipPath id="a"><path d="M 315.03125 132.285156 L 1092.03125 132.285156 L 1092.03125 677.636719 L 315.03125 677.636719 Z M 315.03125 132.285156"/></clipPath></defs><g clip-path="url(#a)"><path fill="#141842" d="M 702.980469 644.199219 L 780.652344 178.480469 C 784.722656 157.449219 771.0625 137.042969 749.957031 132.976562 C 728.917969 128.839844 708.5 142.558594 704.429688 163.65625 C 704.289062 164.34375 704.152344 165.035156 704.082031 165.722656 L 626.410156 631.445312 C 622.339844 652.472656 636.066406 672.8125 657.109375 676.949219 C 678.148438 681.015625 698.566406 667.296875 702.636719 646.269531 C 702.773438 645.578125 702.910156 644.890625 702.980469 644.199219 Z M 884.675781 589.183594 L 1092.03125 404.960938 L 895.503906 230.394531 C 879.5 216.121094 855.011719 217.570312 840.734375 233.632812 C 826.523438 249.628906 827.902344 274.171875 843.976562 288.375 L 975.179688 404.960938 L 833.078125 531.132812 C 817.003906 545.402344 815.554688 569.878906 829.835938 585.941406 C 844.046875 602.007812 868.601562 603.453125 884.675781 589.183594 Z M 537.289062 589.25 C 527.769531 589.320312 518.59375 585.804688 511.488281 579.53125 L 315.03125 404.960938 L 522.386719 220.671875 C 538.738281 206.746094 563.222656 208.605469 577.160156 224.949219 C 590.746094 240.804688 589.367188 264.523438 573.984375 278.65625 L 431.886719 404.960938 L 563.085938 521.410156 C 579.160156 535.679688 580.609375 560.226562 566.328125 576.222656 C 559.015625 584.5625 548.394531 589.25 537.289062 589.25"/></g></svg>