<svg xmlns="http://www.w3.org/2000/svg" width="1440" viewBox="0 0 1440 810" height="810" version="1.0"><path fill="#141842" d="M 694.574219 17.148438 C 684.050781 17.148438 673.53125 22.25 667.375 32.519531 L 655.429688 52.546875 C 650.261719 61.164062 641.71875 66.960938 632.042969 69.601562 C 631.929688 69.628906 631.820312 69.683594 631.707031 69.714844 C 621.914062 72.414062 611.527344 71.625 602.65625 66.683594 L 582.300781 55.351562 C 561.367188 43.71875 535.59375 58.578125 535.191406 82.5625 L 534.742188 106.234375 C 534.570312 116.230469 530.140625 125.507812 523.078125 132.601562 C 522.992188 132.660156 522.910156 132.742188 522.855469 132.828125 C 515.789062 139.921875 506.488281 144.324219 496.496094 144.496094 L 472.832031 144.886719 C 448.882812 145.289062 434.003906 171.101562 445.632812 192.070312 L 457.015625 212.546875 C 461.898438 221.363281 462.714844 231.671875 460.042969 241.382812 C 459.957031 241.554688 459.933594 241.714844 459.875 241.886719 C 457.261719 251.507812 451.46875 259.96875 442.9375 265.109375 L 422.863281 277.171875 C 402.332031 289.496094 402.332031 319.269531 422.863281 331.589844 L 442.9375 343.652344 C 451.496094 348.792969 457.261719 357.253906 459.875 366.878906 C 459.933594 367.050781 459.929688 367.238281 459.988281 367.4375 C 462.65625 377.148438 461.898438 387.484375 457.015625 396.273438 L 445.632812 416.75 C 434.003906 437.691406 448.855469 463.472656 472.832031 463.875 L 496.496094 464.265625 C 506.515625 464.441406 515.789062 468.925781 522.855469 475.992188 L 523.078125 476.214844 C 530.171875 483.28125 534.570312 492.589844 534.742188 502.582031 L 535.136719 526.203125 C 535.539062 550.15625 561.367188 565.070312 582.300781 553.46875 L 602.769531 542.078125 C 611.582031 537.195312 621.890625 536.378906 631.59375 539.050781 C 631.765625 539.105469 631.925781 539.160156 632.097656 539.21875 C 641.71875 541.832031 650.175781 547.601562 655.316406 556.160156 L 667.375 576.242188 C 679.691406 596.78125 709.453125 596.78125 721.773438 576.242188 L 733.828125 556.160156 C 738.96875 547.601562 747.425781 541.832031 757.046875 539.21875 C 757.21875 539.160156 757.433594 539.105469 757.605469 539.050781 C 767.3125 536.378906 777.644531 537.195312 786.433594 542.078125 L 806.902344 553.46875 C 827.832031 565.101562 853.609375 550.1875 854.007812 526.203125 L 854.402344 502.582031 C 854.574219 492.558594 859.058594 483.28125 866.121094 476.214844 L 866.347656 475.992188 C 873.410156 468.898438 882.714844 464.441406 892.707031 464.265625 L 916.316406 463.875 C 940.261719 463.472656 955.171875 437.691406 943.570312 416.75 L 932.1875 396.273438 C 927.304688 387.457031 926.488281 377.148438 929.15625 367.4375 C 929.214844 367.265625 929.269531 367.050781 929.324219 366.878906 C 931.9375 357.253906 937.707031 348.792969 946.261719 343.652344 L 966.339844 331.589844 C 986.867188 319.238281 986.867188 289.523438 966.339844 277.171875 L 946.261719 265.109375 C 937.707031 259.96875 931.9375 251.507812 929.324219 241.886719 C 929.269531 241.714844 929.214844 241.496094 929.15625 241.324219 C 926.488281 231.617188 927.304688 221.277344 932.1875 212.488281 L 943.570312 192.011719 C 955.199219 171.074219 940.289062 145.289062 916.316406 144.886719 L 892.707031 144.496094 C 882.683594 144.324219 873.410156 139.835938 866.347656 132.769531 L 866.121094 132.546875 C 859.03125 125.480469 854.574219 116.175781 854.402344 106.179688 L 854.007812 82.5625 C 853.609375 58.605469 827.832031 43.691406 806.902344 55.296875 L 786.433594 66.683594 C 777.617188 71.566406 767.3125 72.386719 757.605469 69.714844 C 757.433594 69.65625 757.21875 69.601562 757.046875 69.546875 C 747.425781 66.933594 738.96875 61.132812 733.828125 52.601562 L 721.773438 32.519531 C 715.613281 22.25 705.097656 17.148438 694.574219 17.148438 Z M 809.425781 218.210938 C 816.769531 218.210938 824.113281 221.011719 829.726562 226.625 C 840.953125 237.855469 840.953125 256.011719 829.726562 267.242188 L 698.777344 398.238281 C 693.378906 403.636719 686.085938 406.652344 678.476562 406.652344 C 670.867188 406.652344 663.546875 403.636719 658.175781 398.238281 L 587.738281 327.773438 C 576.511719 316.542969 576.511719 298.390625 587.738281 287.160156 C 598.964844 275.929688 617.113281 275.929688 628.339844 287.160156 L 678.476562 337.3125 L 789.125 226.625 C 794.738281 221.011719 802.082031 218.210938 809.425781 218.210938 Z M 486.34375 563.339844 L 422.976562 715.203125 L 534.292969 705.441406 L 608.433594 792.679688 L 669.898438 645.414062 C 648.503906 639.296875 629.992188 625.570312 618.136719 605.753906 L 615.164062 600.816406 L 610.171875 603.621094 C 596.90625 610.972656 581.980469 614.839844 566.933594 614.839844 C 531.5 614.839844 500.671875 593.644531 486.34375 563.339844 Z M 902.800781 563.339844 C 888.472656 593.644531 857.644531 614.898438 822.210938 614.898438 C 807.195312 614.898438 792.238281 611.003906 778.972656 603.621094 L 773.984375 600.816406 L 771.011719 605.753906 C 759.125 625.542969 740.582031 639.324219 719.191406 645.414062 L 780.710938 792.679688 L 854.851562 705.5 L 966.171875 715.203125 Z M 902.800781 563.339844"/></svg>