<svg xmlns="http://www.w3.org/2000/svg" width="1440" viewBox="0 0 1440 810" height="810" version="1.0"><path fill="#3D49CC" d="M 701.914062 17.148438 C 691.390625 17.148438 680.875 22.25 674.714844 32.519531 L 662.769531 52.546875 C 657.601562 61.164062 649.0625 66.960938 639.382812 69.601562 C 639.269531 69.628906 639.164062 69.683594 639.046875 69.714844 C 629.257812 72.414062 618.871094 71.625 610 66.683594 L 589.640625 55.351562 C 568.707031 43.71875 542.933594 58.578125 542.535156 82.5625 L 542.085938 106.234375 C 541.914062 116.230469 537.484375 125.507812 530.417969 132.601562 C 530.332031 132.660156 530.253906 132.742188 530.195312 132.828125 C 523.132812 139.921875 513.828125 144.324219 503.835938 144.496094 L 480.171875 144.886719 C 456.226562 145.289062 441.34375 171.101562 452.972656 192.070312 L 464.355469 212.546875 C 469.238281 221.363281 470.054688 231.671875 467.386719 241.382812 C 467.300781 241.554688 467.273438 241.714844 467.21875 241.886719 C 464.605469 251.507812 458.808594 259.96875 450.28125 265.113281 L 430.203125 277.171875 C 409.675781 289.496094 409.675781 319.269531 430.203125 331.589844 L 450.28125 343.652344 C 458.835938 348.792969 464.605469 357.253906 467.21875 366.878906 C 467.273438 367.050781 467.273438 367.238281 467.328125 367.4375 C 470 377.148438 469.238281 387.484375 464.355469 396.273438 L 452.972656 416.75 C 441.34375 437.691406 456.195312 463.472656 480.171875 463.875 L 503.835938 464.269531 C 513.859375 464.441406 523.132812 468.925781 530.195312 475.992188 L 530.417969 476.21875 C 537.511719 483.28125 541.914062 492.589844 542.085938 502.585938 L 542.476562 526.203125 C 542.878906 550.15625 568.707031 565.070312 589.640625 553.46875 L 610.109375 542.078125 C 618.925781 537.195312 629.230469 536.378906 638.9375 539.050781 C 639.109375 539.105469 639.269531 539.160156 639.441406 539.21875 C 649.058594 541.832031 657.519531 547.601562 662.65625 556.160156 L 674.714844 576.242188 C 687.03125 596.78125 716.796875 596.78125 729.113281 576.242188 L 741.171875 556.160156 C 746.308594 547.601562 754.769531 541.832031 764.386719 539.21875 C 764.558594 539.160156 764.777344 539.105469 764.949219 539.050781 C 774.652344 536.378906 784.988281 537.195312 793.773438 542.078125 L 814.242188 553.46875 C 835.175781 565.101562 860.949219 550.1875 861.351562 526.203125 L 861.742188 502.585938 C 861.914062 492.558594 866.402344 483.28125 873.464844 476.21875 L 873.6875 475.992188 C 880.753906 468.898438 890.054688 464.441406 900.046875 464.269531 L 923.65625 463.875 C 947.601562 463.472656 962.511719 437.691406 950.910156 416.75 L 939.527344 396.273438 C 934.644531 387.457031 933.828125 377.148438 936.5 367.4375 C 936.554688 367.265625 936.609375 367.050781 936.667969 366.878906 C 939.28125 357.253906 945.046875 348.792969 953.605469 343.652344 L 973.679688 331.589844 C 994.210938 319.238281 994.210938 289.523438 973.679688 277.171875 L 953.605469 265.113281 C 945.046875 259.96875 939.28125 251.507812 936.667969 241.886719 C 936.609375 241.714844 936.554688 241.496094 936.5 241.324219 C 933.828125 231.617188 934.644531 221.277344 939.527344 212.488281 L 950.910156 192.011719 C 962.539062 171.074219 947.632812 145.289062 923.65625 144.886719 L 900.046875 144.496094 C 890.027344 144.324219 880.753906 139.835938 873.6875 132.769531 L 873.464844 132.546875 C 866.371094 125.480469 861.914062 116.175781 861.742188 106.179688 L 861.351562 82.5625 C 860.949219 58.605469 835.175781 43.691406 814.242188 55.296875 L 793.773438 66.683594 C 784.960938 71.566406 774.652344 72.386719 764.949219 69.714844 C 764.777344 69.65625 764.558594 69.601562 764.386719 69.546875 C 754.769531 66.933594 746.308594 61.132812 741.171875 52.605469 L 729.113281 32.519531 C 722.953125 22.25 712.4375 17.148438 701.914062 17.148438 Z M 816.765625 218.210938 C 824.109375 218.210938 831.453125 221.011719 837.066406 226.625 C 848.296875 237.859375 848.296875 256.011719 837.066406 267.242188 L 706.121094 398.238281 C 700.722656 403.636719 693.429688 406.652344 685.820312 406.652344 C 678.210938 406.652344 670.886719 403.636719 665.519531 398.238281 L 595.082031 327.777344 C 583.855469 316.542969 583.855469 298.390625 595.082031 287.160156 C 606.308594 275.929688 624.457031 275.929688 635.683594 287.160156 L 685.820312 337.3125 L 796.464844 226.625 C 802.078125 221.011719 809.421875 218.210938 816.765625 218.210938 Z M 493.6875 563.339844 L 430.316406 715.203125 L 541.636719 705.441406 L 615.773438 792.679688 L 677.238281 645.414062 C 655.847656 639.296875 637.335938 625.570312 625.476562 605.753906 L 622.503906 600.816406 L 617.511719 603.621094 C 604.246094 610.972656 589.320312 614.839844 574.273438 614.839844 C 538.84375 614.839844 508.015625 593.644531 493.6875 563.339844 Z M 910.140625 563.339844 C 895.8125 593.644531 864.984375 614.898438 829.554688 614.898438 C 814.535156 614.898438 799.582031 611.003906 786.316406 603.621094 L 781.324219 600.816406 L 778.351562 605.753906 C 766.464844 625.542969 747.925781 639.328125 726.535156 645.414062 L 788.054688 792.679688 L 862.191406 705.5 L 973.511719 715.203125 Z M 910.140625 563.339844"/></svg>